<?xml version="1.0" encoding="UTF-8"?>
<svg id="Layer_1" data-name="Layer 1" xmlns="http://www.w3.org/2000/svg" viewBox="0 0 1080 1080">
  <defs>
    <style>
      .cls-1 {
        fill: #f1cd30;
      }

      .cls-2 {
        fill: #2d4c3d;
      }
    </style>
  </defs>
  <path class="cls-1" d="M-17.98-18.83h1116.57v1117.66H-17.98l-.55-.1c-.08-58.58-.08-116.13,0-172.66V-18.44s.55-.39.55-.39Z"/>
  <path class="cls-2" d="M287.11,460.48l-11.1,12.27-26.18-.1,13.98-24.08,34.47.03-11.16,11.88ZM172.66,460.7l.45,12.88c1.61.46,3.24.32,4.86.16l-.23-14.42c-.04-2.69-2.64-4.65-4.77-4.98-2.54-.4-4.73.03-6.79,1.92-.17-.58-.5-1.59-1-1.6l-4.33-.06v19.2c1.82.06,3.33.26,4.8-.21.31-6.56-1.13-13.4,3.71-14.63,1.06-.27,3.24.2,3.3,1.72ZM120.91,452.98l5.11-.15c.27-1.68.35-3.28-.09-4.95h-14.81s0,4.86,0,4.86c1.49.4,2.83.16,4.5.15l.06,20.89,5.17.03.06-20.82ZM128.43,473.87h5.07s.02-19.32.02-19.32h-5.07s-.02,19.32-.02,19.32ZM131.08,446.65c-1.81,0-3.28,1.47-3.28,3.28s1.47,3.28,3.28,3.28,3.28-1.47,3.28-3.28-1.47-3.28-3.28-3.28ZM196.95,473.8l4.2-.08-.06-26.54-4.86-.05-.13,9.36c-3.84-3.44-9.53-3.03-12.69.99s-3.04,9.9.24,13.85,8.35,4.36,12.13,1.01c.56.56.89,1.37,1.18,1.46ZM196.3,463.78c.29,3.4-1.6,5.88-4.51,6.06s-5.44-2.05-5.55-5.28c-.11-3.01,1.77-5.38,4.56-5.7s5.22,1.65,5.5,4.92ZM224.22,454.7l-4.24-.03c-.52,0-.8,1.2-.87,1.6-4.55-3.57-10.74-2.53-13.51,2.33-1.86,3.27-1.97,7.32-.35,10.65,2.49,5.12,8.52,6.89,13.23,3.57,1.73,1.21,3.6,1.39,5.79.86l-.03-18.97ZM219.47,464.28c0,3.37-2.37,5.53-5.04,5.53-3.11,0-5.34-2.55-5.19-5.79.14-2.99,2.38-5.23,5.21-5.21,2.64.02,5.02,2.23,5.02,5.48ZM145.49,469.77c-1.54-.27-3.38-1.42-3.81-3.79l15.56-.23c.77-6.46-3.86-11.44-10.06-11.62-5.49-.16-9.71,3.47-10.37,8.96-.77,6.36,3.94,11.58,10.43,11.46,3.66-.07,6.98-1.34,8.85-4.71l-4.19-1.72c-1.94,2-4.02,2.06-6.4,1.64ZM152.1,461.62l-10.14.24c.81-2.23,2.95-2.97,4.52-3.12,2.31-.22,4.21,0,5.62,2.88ZM658.84,526.23c1.55,6.26,1.69,12.42,2,19.08v57.46s28.48-.04,28.48-.04v-73.22c-.04-15.45-3.84-29.43-17.18-37.72-18.28-11.36-40.16-6.03-55.2,8.29l-.24-11.43-28.77.03v114.09s28.72.11,28.72.11l.03-59.16c.14-16.33,9.77-33.32,26.84-31.45,8.11.89,13.46,6.41,15.33,13.97ZM914.79,593.13c14.61-16.39,10.3-41.34-8.23-52.67l-15.61-8.63-14.26-7.76c-2.35-1.28-3.31-3.93-2.96-6.45.86-6.25,12.02-7.59,19.34-3.11,3.84,2.08,6.93,4.88,10.41,7.87l17.72-17.81c-13.77-19.37-42.92-25.24-61.57-11.63-7.92,5.78-12.58,14.45-13.17,23.7-.62,9.74,3.5,18.81,10.59,25.36,2.9,2.68,5.49,5.13,8.95,6.97l19.23,10.23c3.26,1.73,6.15,3.48,8.55,6.28s3.45,7.44.68,10.34c-8.99,9.44-25.83,1.58-34.44-8.97l-16.37,17.71c-.9.97-1.19,2.24-.27,3.37,12.17,15.02,32.3,21.02,50.88,16.7,7.89-1.83,15.22-5.54,20.54-11.51ZM951,486.8c-9.88,0-17.89,8.01-17.89,17.89s8.01,17.89,17.89,17.89,17.89-8.01,17.89-17.89-8.01-17.89-17.89-17.89ZM964.96,504.61c0,7.67-6.22,13.89-13.89,13.89s-13.89-6.22-13.89-13.89,6.22-13.89,13.89-13.89,13.89,6.22,13.89,13.89ZM959.33,514.24l-.49-4.86c-.17-1.67-.54-2.93-1.78-4.17,1.92-1.64,2.36-3.59,1.98-5.85-.27-1.65-1.8-4.03-4.02-4.08l-11.54-.28.17,19.34c1.57.32,2.97.35,4.34.02l.33-6.63c.93-.96,4.42-.75,5.31.42,1.34,1.74.64,3.96.74,6.16,1.97.47,3.44.34,4.97-.06ZM954,502.68c-1.76,1.05-3.92.6-5.69.46l-.09-4.01c1.69-.15,3.56-.41,5.42.19,1,.33,1.41,2.73.35,3.36ZM413.37,488.79l-28.65,66.7-18.47-43.08-10.15-23.75-29.39.07,10.03,23.68,23.46,55.53,14.89,34.78,18.98-.02,23.15-54.3,25.5-59.64-29.34.03ZM181.48,599.46l.04-111.56-28.7.1-.03,111.44c-.88,6.41-5.13,10.36-11.36,9.94-3.86-.26-7.39-1.44-11.41-3.25l-.2,22.83c17.79,7.04,40.13,7.18,48.1-11.3,2.54-5.88,3.25-11.63,3.55-18.2ZM493.78,578.4c-10.85-3.77-18.26-12.85-20.17-24.37l91.9-.07c.49-9.25-.04-17.78-2.49-26.3-8.8-30.65-38.58-46.68-69.4-41.05-19.82,3.62-36.15,16.91-43.4,35.77-12.84,33.42,2.42,71.85,38.44,81.25,14.91,3.89,30.5,2.89,44.94-2.59,10.2-4.44,18.51-11.45,25.05-20.33l-25.06-11.53c-10.89,10.47-26.03,13.86-39.82,9.23ZM536.84,531.32l-61.54.05c5.01-13.86,17.85-21.96,31.97-21.23,12.94.38,24.79,7.77,29.57,21.17ZM760.23,579.3c-12.27-2.93-20.87-12.65-22.99-25.24l36.27-.06,55.63-.04c.81-12.5-.78-25.13-6.46-36.6-9.59-19.36-28.99-31.07-50.56-31.67-35.32-2.03-62.69,24.48-62.6,59.53.03,10.68,1.59,20.82,6.62,30.15,8.59,15.92,23.54,26.29,41.37,29.42,24.39,4.28,50.01-2.92,64.37-24.09l-24.52-11.37c-10.25,9.66-23.95,13.12-37.13,9.98ZM800.2,531.41l-61.14.11c1.9-6.35,5.92-11.55,11.37-15.43,12.44-8.85,29.8-7.91,41.27,2.1,4.05,3.53,6.79,7.71,8.49,13.22ZM262.89,485.75c-33.2,0-60.12,26.92-60.12,60.12s26.92,60.12,60.12,60.12,60.12-26.92,60.12-60.12-26.92-60.12-60.12-60.12ZM262.99,578.95c-14.19.15-25.75-8.58-29.63-21.8-5.39-18.39,2.93-38.88,21.55-43.41,11.79-2.87,23.99.71,31.65,10.43s9.01,22.76,5.11,34.11c-4.28,12.48-15.21,20.53-28.68,20.67Z"/>
</svg>